<mxfile host="app.diagrams.net" modified="2024-04-19T09:44:26.234Z" agent="Mozilla/5.0 (Macintosh; Intel Mac OS X 10_15_7) AppleWebKit/537.36 (KHTML, like Gecko) Chrome/124.0.0.0 Safari/537.36" etag="bhJhj8EvjQlNdoD_T3nr" version="24.2.2" type="device">
  <diagram name="ページ1" id="KTmhikJlyO--2MtsTX8y">
    <mxGraphModel dx="955" dy="604" grid="1" gridSize="10" guides="1" tooltips="1" connect="1" arrows="1" fold="1" page="1" pageScale="1" pageWidth="827" pageHeight="1169" math="0" shadow="0">
      <root>
        <mxCell id="0" />
        <mxCell id="1" parent="0" />
        <mxCell id="tbAWzuxnCb8HUWdNtCA--7" value="" style="rounded=0;whiteSpace=wrap;html=1;fillColor=#dae8fc;strokeColor=#6c8ebf;" parent="1" vertex="1">
          <mxGeometry x="210" y="320" width="200" height="70" as="geometry" />
        </mxCell>
        <mxCell id="tbAWzuxnCb8HUWdNtCA--1" value="ViewModel" style="rounded=0;whiteSpace=wrap;html=1;" parent="1" vertex="1">
          <mxGeometry x="200" y="340" width="80" height="30" as="geometry" />
        </mxCell>
        <mxCell id="tbAWzuxnCb8HUWdNtCA--2" value="UseCase" style="rounded=0;whiteSpace=wrap;html=1;" parent="1" vertex="1">
          <mxGeometry x="310" y="340" width="80" height="30" as="geometry" />
        </mxCell>
        <mxCell id="tbAWzuxnCb8HUWdNtCA--5" value="Repository" style="rounded=0;whiteSpace=wrap;html=1;textOpacity=30;opacity=30;" parent="1" vertex="1">
          <mxGeometry x="460" y="350" width="110" height="30" as="geometry" />
        </mxCell>
        <mxCell id="tbAWzuxnCb8HUWdNtCA--9" value="Fragment" style="rounded=0;whiteSpace=wrap;html=1;textOpacity=30;opacity=30;" parent="1" vertex="1">
          <mxGeometry x="40" y="340" width="80" height="30" as="geometry" />
        </mxCell>
        <mxCell id="tbAWzuxnCb8HUWdNtCA--10" value="" style="shape=flexArrow;endArrow=classic;html=1;rounded=0;" parent="1" edge="1">
          <mxGeometry width="50" height="50" relative="1" as="geometry">
            <mxPoint x="150" y="330" as="sourcePoint" />
            <mxPoint x="190" y="330" as="targetPoint" />
          </mxGeometry>
        </mxCell>
        <mxCell id="tbAWzuxnCb8HUWdNtCA--11" value="" style="shape=flexArrow;endArrow=classic;html=1;rounded=0;" parent="1" edge="1">
          <mxGeometry width="50" height="50" relative="1" as="geometry">
            <mxPoint x="190" y="380" as="sourcePoint" />
            <mxPoint x="150" y="380" as="targetPoint" />
          </mxGeometry>
        </mxCell>
        <mxCell id="tbAWzuxnCb8HUWdNtCA--12" value="When" style="text;html=1;align=center;verticalAlign=middle;whiteSpace=wrap;rounded=0;" parent="1" vertex="1">
          <mxGeometry x="110" y="300" width="60" height="30" as="geometry" />
        </mxCell>
        <mxCell id="tbAWzuxnCb8HUWdNtCA--14" value="Then" style="text;html=1;align=center;verticalAlign=middle;whiteSpace=wrap;rounded=0;" parent="1" vertex="1">
          <mxGeometry x="110" y="380" width="60" height="30" as="geometry" />
        </mxCell>
        <mxCell id="tbAWzuxnCb8HUWdNtCA--15" value="Repository Mock" style="rounded=0;whiteSpace=wrap;html=1;fillColor=#ffe6cc;strokeColor=#d79b00;" parent="1" vertex="1">
          <mxGeometry x="440" y="330" width="140" height="30" as="geometry" />
        </mxCell>
        <mxCell id="tbAWzuxnCb8HUWdNtCA--17" value="Real object" style="text;html=1;align=center;verticalAlign=middle;whiteSpace=wrap;rounded=0;fontStyle=3" parent="1" vertex="1">
          <mxGeometry x="200" y="420" width="90" height="30" as="geometry" />
        </mxCell>
        <mxCell id="tbAWzuxnCb8HUWdNtCA--18" value="Fake object" style="text;html=1;align=center;verticalAlign=middle;whiteSpace=wrap;rounded=0;fontStyle=3" parent="1" vertex="1">
          <mxGeometry x="440" y="420" width="90" height="30" as="geometry" />
        </mxCell>
        <mxCell id="tbAWzuxnCb8HUWdNtCA--20" value="Given" style="text;html=1;align=center;verticalAlign=middle;whiteSpace=wrap;rounded=0;" parent="1" vertex="1">
          <mxGeometry x="440" y="300" width="60" height="30" as="geometry" />
        </mxCell>
        <mxCell id="ckzR8l4SKG6Hk0NVj2tJ-1" value="" style="rounded=0;whiteSpace=wrap;html=1;fillColor=#dae8fc;strokeColor=#6c8ebf;" parent="1" vertex="1">
          <mxGeometry x="210" y="50" width="310" height="70" as="geometry" />
        </mxCell>
        <mxCell id="ckzR8l4SKG6Hk0NVj2tJ-2" value="Presenter" style="rounded=0;whiteSpace=wrap;html=1;" parent="1" vertex="1">
          <mxGeometry x="200" y="70" width="80" height="30" as="geometry" />
        </mxCell>
        <mxCell id="ckzR8l4SKG6Hk0NVj2tJ-3" value="Interactor" style="rounded=0;whiteSpace=wrap;html=1;" parent="1" vertex="1">
          <mxGeometry x="310" y="70" width="80" height="30" as="geometry" />
        </mxCell>
        <mxCell id="ckzR8l4SKG6Hk0NVj2tJ-4" value="Repository" style="rounded=0;whiteSpace=wrap;html=1;" parent="1" vertex="1">
          <mxGeometry x="420" y="70" width="80" height="30" as="geometry" />
        </mxCell>
        <mxCell id="ckzR8l4SKG6Hk0NVj2tJ-5" value="UserDefaults" style="rounded=0;whiteSpace=wrap;html=1;textOpacity=30;opacity=30;" parent="1" vertex="1">
          <mxGeometry x="560" y="50" width="110" height="30" as="geometry" />
        </mxCell>
        <mxCell id="ckzR8l4SKG6Hk0NVj2tJ-6" value="API" style="rounded=0;whiteSpace=wrap;html=1;textOpacity=30;opacity=30;" parent="1" vertex="1">
          <mxGeometry x="560" y="120" width="80" height="30" as="geometry" />
        </mxCell>
        <mxCell id="ckzR8l4SKG6Hk0NVj2tJ-7" value="ViewController" style="rounded=0;whiteSpace=wrap;html=1;textOpacity=30;opacity=30;" parent="1" vertex="1">
          <mxGeometry x="40" y="70" width="100" height="30" as="geometry" />
        </mxCell>
        <mxCell id="ckzR8l4SKG6Hk0NVj2tJ-8" value="" style="shape=flexArrow;endArrow=classic;html=1;rounded=0;" parent="1" edge="1">
          <mxGeometry width="50" height="50" relative="1" as="geometry">
            <mxPoint x="150" y="60" as="sourcePoint" />
            <mxPoint x="190" y="60" as="targetPoint" />
          </mxGeometry>
        </mxCell>
        <mxCell id="ckzR8l4SKG6Hk0NVj2tJ-9" value="" style="shape=flexArrow;endArrow=classic;html=1;rounded=0;" parent="1" edge="1">
          <mxGeometry width="50" height="50" relative="1" as="geometry">
            <mxPoint x="190" y="110" as="sourcePoint" />
            <mxPoint x="150" y="110" as="targetPoint" />
          </mxGeometry>
        </mxCell>
        <mxCell id="ckzR8l4SKG6Hk0NVj2tJ-10" value="When" style="text;html=1;align=center;verticalAlign=middle;whiteSpace=wrap;rounded=0;" parent="1" vertex="1">
          <mxGeometry x="110" y="30" width="60" height="30" as="geometry" />
        </mxCell>
        <mxCell id="ckzR8l4SKG6Hk0NVj2tJ-11" value="Then" style="text;html=1;align=center;verticalAlign=middle;whiteSpace=wrap;rounded=0;" parent="1" vertex="1">
          <mxGeometry x="110" y="110" width="60" height="30" as="geometry" />
        </mxCell>
        <mxCell id="ckzR8l4SKG6Hk0NVj2tJ-12" value="UserDefaults Mock" style="rounded=0;whiteSpace=wrap;html=1;fillColor=#ffe6cc;strokeColor=#d79b00;" parent="1" vertex="1">
          <mxGeometry x="540" y="30" width="140" height="30" as="geometry" />
        </mxCell>
        <mxCell id="ckzR8l4SKG6Hk0NVj2tJ-13" value="API Mock" style="rounded=0;whiteSpace=wrap;html=1;fillColor=#ffe6cc;strokeColor=#d79b00;" parent="1" vertex="1">
          <mxGeometry x="540" y="100" width="80" height="30" as="geometry" />
        </mxCell>
        <mxCell id="ckzR8l4SKG6Hk0NVj2tJ-14" value="Real object" style="text;html=1;align=center;verticalAlign=middle;whiteSpace=wrap;rounded=0;fontStyle=3" parent="1" vertex="1">
          <mxGeometry x="200" y="150" width="90" height="30" as="geometry" />
        </mxCell>
        <mxCell id="ckzR8l4SKG6Hk0NVj2tJ-15" value="Fake object" style="text;html=1;align=center;verticalAlign=middle;whiteSpace=wrap;rounded=0;fontStyle=3" parent="1" vertex="1">
          <mxGeometry x="540" y="150" width="90" height="30" as="geometry" />
        </mxCell>
        <mxCell id="ckzR8l4SKG6Hk0NVj2tJ-16" value="Given" style="text;html=1;align=center;verticalAlign=middle;whiteSpace=wrap;rounded=0;" parent="1" vertex="1">
          <mxGeometry x="540" width="60" height="30" as="geometry" />
        </mxCell>
      </root>
    </mxGraphModel>
  </diagram>
</mxfile>
